<mxfile host="app.diagrams.net" agent="Mozilla/5.0 (Windows NT 10.0; Win64; x64) AppleWebKit/537.36 (KHTML, like Gecko) Chrome/135.0.0.0 Safari/537.36" version="26.2.13">
  <diagram name="Page-1" id="TwjLG1IFB1m_qGwWurnQ">
    <mxGraphModel dx="1833" dy="851" grid="1" gridSize="10" guides="1" tooltips="1" connect="1" arrows="1" fold="1" page="1" pageScale="1" pageWidth="850" pageHeight="1100" math="0" shadow="0">
      <root>
        <mxCell id="0" />
        <mxCell id="1" parent="0" />
        <mxCell id="31vpEHrLYVQIeLg_pxgq-1" value="" style="ellipse;fillColor=strokeColor;" vertex="1" parent="1">
          <mxGeometry x="144" y="33" width="14" height="14" as="geometry" />
        </mxCell>
        <mxCell id="31vpEHrLYVQIeLg_pxgq-2" value="Start" style="rounded=1;arcSize=20;strokeWidth=2" vertex="1" parent="1">
          <mxGeometry x="126" y="110" width="51" height="40" as="geometry" />
        </mxCell>
        <mxCell id="31vpEHrLYVQIeLg_pxgq-3" value="Login" style="rounded=1;arcSize=20;strokeWidth=2" vertex="1" parent="1">
          <mxGeometry x="124" y="200" width="54" height="40" as="geometry" />
        </mxCell>
        <mxCell id="31vpEHrLYVQIeLg_pxgq-4" value="Decision" style="rounded=1;arcSize=20;strokeWidth=2" vertex="1" parent="1">
          <mxGeometry x="114" y="312" width="75" height="40" as="geometry" />
        </mxCell>
        <mxCell id="31vpEHrLYVQIeLg_pxgq-5" value="|Yes|" style="rounded=1;arcSize=20;strokeWidth=2" vertex="1" parent="1">
          <mxGeometry x="20" y="446" width="55" height="40" as="geometry" />
        </mxCell>
        <mxCell id="31vpEHrLYVQIeLg_pxgq-6" value="BrowseMenu" style="rounded=1;arcSize=20;strokeWidth=2" vertex="1" parent="1">
          <mxGeometry x="233" y="20" width="105" height="40" as="geometry" />
        </mxCell>
        <mxCell id="31vpEHrLYVQIeLg_pxgq-7" value="|No|" style="rounded=1;arcSize=20;strokeWidth=2" vertex="1" parent="1">
          <mxGeometry x="125" y="446" width="52" height="40" as="geometry" />
        </mxCell>
        <mxCell id="31vpEHrLYVQIeLg_pxgq-8" value="End" style="rounded=1;arcSize=20;strokeWidth=2" vertex="1" parent="1">
          <mxGeometry x="264" y="312" width="42" height="40" as="geometry" />
        </mxCell>
        <mxCell id="31vpEHrLYVQIeLg_pxgq-9" value="BookTable" style="rounded=1;arcSize=20;strokeWidth=2" vertex="1" parent="1">
          <mxGeometry x="241" y="110" width="88" height="40" as="geometry" />
        </mxCell>
        <mxCell id="31vpEHrLYVQIeLg_pxgq-10" value="MakePayment" style="rounded=1;arcSize=20;strokeWidth=2" vertex="1" parent="1">
          <mxGeometry x="228" y="200" width="114" height="40" as="geometry" />
        </mxCell>
        <mxCell id="31vpEHrLYVQIeLg_pxgq-11" value="Decision to check user credentials" style="whiteSpace=wrap;strokeWidth=2;" vertex="1" parent="1">
          <mxGeometry x="212" y="402" width="300" height="128" as="geometry" />
        </mxCell>
        <mxCell id="31vpEHrLYVQIeLg_pxgq-12" value="Decision to check user credentials" style="align=left;spacingLeft=4;" vertex="1" parent="1">
          <mxGeometry x="247" y="427" width="230" height="78" as="geometry" />
        </mxCell>
        <mxCell id="31vpEHrLYVQIeLg_pxgq-13" value="" style="curved=1;startArrow=none;;exitX=0.52;exitY=1;entryX=0.49;entryY=0;rounded=0;" edge="1" parent="1" source="31vpEHrLYVQIeLg_pxgq-1" target="31vpEHrLYVQIeLg_pxgq-2">
          <mxGeometry relative="1" as="geometry">
            <Array as="points" />
          </mxGeometry>
        </mxCell>
        <mxCell id="31vpEHrLYVQIeLg_pxgq-14" value="" style="curved=1;startArrow=none;;exitX=0.49;exitY=1;entryX=0.5;entryY=0;rounded=0;" edge="1" parent="1" source="31vpEHrLYVQIeLg_pxgq-2" target="31vpEHrLYVQIeLg_pxgq-3">
          <mxGeometry relative="1" as="geometry">
            <Array as="points" />
          </mxGeometry>
        </mxCell>
        <mxCell id="31vpEHrLYVQIeLg_pxgq-15" value="Correct Credentials?" style="curved=1;startArrow=none;;exitX=0.5;exitY=1;entryX=0.5;entryY=0.01;rounded=0;" edge="1" parent="1" source="31vpEHrLYVQIeLg_pxgq-3" target="31vpEHrLYVQIeLg_pxgq-4">
          <mxGeometry relative="1" as="geometry">
            <Array as="points" />
          </mxGeometry>
        </mxCell>
        <mxCell id="31vpEHrLYVQIeLg_pxgq-16" value="" style="curved=1;startArrow=none;;exitX=-0.01;exitY=0.92;entryX=0.5;entryY=0.01;rounded=0;" edge="1" parent="1" source="31vpEHrLYVQIeLg_pxgq-4" target="31vpEHrLYVQIeLg_pxgq-5">
          <mxGeometry relative="1" as="geometry">
            <Array as="points">
              <mxPoint x="48" y="377" />
            </Array>
          </mxGeometry>
        </mxCell>
        <mxCell id="31vpEHrLYVQIeLg_pxgq-17" value="" style="curved=1;startArrow=none;;exitX=0.5;exitY=1.01;entryX=0.5;entryY=0.01;rounded=0;" edge="1" parent="1" source="31vpEHrLYVQIeLg_pxgq-4" target="31vpEHrLYVQIeLg_pxgq-7">
          <mxGeometry relative="1" as="geometry">
            <Array as="points" />
          </mxGeometry>
        </mxCell>
        <mxCell id="31vpEHrLYVQIeLg_pxgq-18" value="" style="curved=1;startArrow=none;;exitX=0.5;exitY=1;entryX=0.5;entryY=0;rounded=0;" edge="1" parent="1" source="31vpEHrLYVQIeLg_pxgq-6" target="31vpEHrLYVQIeLg_pxgq-9">
          <mxGeometry relative="1" as="geometry">
            <Array as="points" />
          </mxGeometry>
        </mxCell>
        <mxCell id="31vpEHrLYVQIeLg_pxgq-19" value="" style="curved=1;startArrow=none;;exitX=0.5;exitY=1;entryX=0.5;entryY=0;rounded=0;" edge="1" parent="1" source="31vpEHrLYVQIeLg_pxgq-9" target="31vpEHrLYVQIeLg_pxgq-10">
          <mxGeometry relative="1" as="geometry">
            <Array as="points" />
          </mxGeometry>
        </mxCell>
        <mxCell id="31vpEHrLYVQIeLg_pxgq-20" value="" style="curved=1;startArrow=none;;exitX=0.5;exitY=1;entryX=0.51;entryY=0.01;rounded=0;" edge="1" parent="1" source="31vpEHrLYVQIeLg_pxgq-10" target="31vpEHrLYVQIeLg_pxgq-8">
          <mxGeometry relative="1" as="geometry">
            <Array as="points" />
          </mxGeometry>
        </mxCell>
        <mxCell id="31vpEHrLYVQIeLg_pxgq-21" value="" style="curved=1;dashed=1;startArrow=none;;exitX=1;exitY=0.71;entryX=0.5;entryY=0.01;rounded=0;" edge="1" parent="1" source="31vpEHrLYVQIeLg_pxgq-4" target="31vpEHrLYVQIeLg_pxgq-12">
          <mxGeometry relative="1" as="geometry">
            <Array as="points">
              <mxPoint x="362" y="377" />
            </Array>
          </mxGeometry>
        </mxCell>
      </root>
    </mxGraphModel>
  </diagram>
</mxfile>
